<?xml version="1.0" encoding="UTF-8" standalone="no"?>
<!-- Created with Inkscape (http://www.inkscape.org/) -->

<svg
   xmlns:dc="http://purl.org/dc/elements/1.1/"
   xmlns:cc="http://creativecommons.org/ns#"
   xmlns:rdf="http://www.w3.org/1999/02/22-rdf-syntax-ns#"
   xmlns:svg="http://www.w3.org/2000/svg"
   xmlns="http://www.w3.org/2000/svg"
   xmlns:sodipodi="http://sodipodi.sourceforge.net/DTD/sodipodi-0.dtd"
   xmlns:inkscape="http://www.inkscape.org/namespaces/inkscape"
   width="210mm"
   height="297mm"
   viewBox="0 0 210 297"
   version="1.1"
   id="svg10395"
   inkscape:version="0.92.2 (5c3e80d, 2017-08-06)"
   sodipodi:docname="Good Vibes Only.svg">
  <defs
     id="defs10389" />
  <sodipodi:namedview
     id="base"
     pagecolor="#ffffff"
     bordercolor="#666666"
     borderopacity="1.0"
     inkscape:pageopacity="0.0"
     inkscape:pageshadow="2"
     inkscape:zoom="0.49497475"
     inkscape:cx="513.36325"
     inkscape:cy="755.25488"
     inkscape:document-units="mm"
     inkscape:current-layer="layer1"
     showgrid="false"
     inkscape:snap-global="false" />
  <metadata
     id="metadata10392">
    <rdf:RDF>
      <cc:Work
         rdf:about="">
        <dc:format>image/svg+xml</dc:format>
        <dc:type
           rdf:resource="http://purl.org/dc/dcmitype/StillImage" />
        <dc:title></dc:title>
      </cc:Work>
    </rdf:RDF>
  </metadata>
  <g
     inkscape:label="Layer 1"
     inkscape:groupmode="layer"
     id="layer1">
    <path
       style="font-style:normal;font-variant:normal;font-weight:normal;font-stretch:normal;font-size:80.46426392px;line-height:125%;font-family:'Raph Lanok Future';-inkscape-font-specification:'Raph Lanok Future, Normal';font-variant-ligatures:normal;font-variant-caps:normal;font-variant-numeric:normal;font-feature-settings:normal;text-align:start;letter-spacing:0px;word-spacing:0px;writing-mode:lr-tb;text-anchor:start;fill:#000000;fill-opacity:1;stroke:none;stroke-width:0.44589049px;stroke-linecap:butt;stroke-linejoin:miter;stroke-opacity:1"
       d="m 20.207999,5.7026539 c -1.26128,0.134843 -2.561674,0.807429 -3.863704,1.858424 -2.001561,1.618995 -3.612242,3.7803801 -5.108448,6.1209331 -2.4189793,3.775543 -4.1696673,7.856658 -5.4624883,12.053708 -1.57344,5.267573 -2.233394,10.400047 -2.019462,15.293096 0.130658,2.749277 0.607851,5.202312 1.783186,7.196852 1.060973,1.815444 2.570015,2.878627 4.6178783,3.065844 1.472651,0.125266 3.038896,-0.106392 4.672065,-0.764385 1.068372,-0.451976 2.131498,-1.03784 3.117819,-2.065717 1.159587,-1.17598 2.191596,-2.565775 3.122449,-4.09997 0.112584,-0.187724 0.258654,-0.405893 0.474679,-0.682799 -0.01611,0.198396 -0.01095,0.33236 0.01561,0.401931 0.02548,1.270288 0.0376,2.505696 0.09772,3.746345 0.223652,2.992794 0.689869,5.77838 1.819596,8.134919 0.520969,1.123509 1.322016,1.7769 2.451063,1.965223 0.814869,0.08777 1.286793,-0.36178 1.30637,-1.393712 -0.01274,-0.635144 -0.108216,-1.245821 -0.294193,-1.732833 -0.722576,-2.012498 -1.18925,-4.197607 -1.448097,-6.560424 -0.382518,-4.01058 -0.165619,-8.256732 0.251127,-12.581497 0.336467,-3.933141 0.934001,-7.905 1.600812,-11.935981 0.104498,-0.689225 0.153007,-1.284443 -0.288791,-1.598877 l 0.162775,-0.415974 c 0.371264,-1.194189 -0.115699,-1.747079 -1.074922,-1.249987 -0.524943,0.310372 -1.023128,0.69029 -1.455062,1.244179 -1.141095,1.344759 -2.348665,2.515629 -3.569448,3.651675 -1.56729,1.432277 -3.201105,2.690607 -4.861363,3.879385 -1.300511,0.927313 -2.566219,1.824905 -3.930267,2.345103 -0.151842,0.08373 -0.351784,0.162449 -0.525018,0.310577 -0.359786,0.261444 -0.487995,0.647761 -0.285882,0.936362 0.175565,0.219056 0.420472,0.378842 0.68669,0.474247 0.894581,0.2965 1.904096,0.171856 3.001899,-0.443734 1.422941,-0.847418 2.814013,-1.898408 4.178607,-3.018956 1.156701,-0.94281 2.321522,-1.984888 3.499584,-2.99211 -0.247062,2.241615 -0.472752,4.418923 -0.781009,6.620585 -0.08599,0.857998 -0.241228,1.775334 -0.471014,2.617847 -1.045092,4.12366 -3.003306,7.78183 -5.800011,11.049699 -1.245048,1.433625 -2.465192,1.969387 -3.738027,1.765571 -0.719016,-0.07738 -1.339445,-0.377723 -1.847678,-0.866083 -1.2053163,-1.230587 -1.8561133,-2.935117 -2.2431443,-4.911462 -0.283633,-1.464872 -0.346178,-3.072669 -0.360695,-4.675326 0.03558,-3.998911 0.61479,-8.139482 1.928971,-12.400944 1.0843793,-3.418949 2.4962093,-6.702585 4.1956443,-9.955221 1.200555,-2.27231 2.645901,-4.38494 4.328101,-6.2384681 0.61848,-0.667212 1.276701,-1.230018 2.07075,-1.678188 l -0.09113,0.724053 -0.24291,3.5763151 c -0.05422,1.06156 0.03008,2.004714 0.279626,2.898853 0.321154,1.202059 1.074244,1.849963 2.240807,1.775479 0.748447,-0.08616 1.049956,-0.620501 0.853609,-1.375466 l -0.05314,-0.139305 c -0.292259,-0.765318 -0.411334,-1.678599 -0.447766,-2.616495 -0.08382,-1.543414 0.09337,-3.1255521 0.326595,-4.8015961 0.17955,-1.214836 -0.125984,-2.014889 -1.02054,-2.31138 -0.112659,-0.03924 -0.225742,-0.07327 -0.339351,-0.102053 -0.479295,-0.121437 -0.966927,-0.151028 -1.460472,-0.09826 z m 65.085638,-3.377204 c -0.28478,0.03008 -0.5736,0.168113 -0.85695,0.377019 -0.30928,0.219407 -0.61882,0.438924 -0.86938,0.776345 -0.84553,0.888427 -1.69099,1.776853 -2.41332,2.848117 -2.35958,3.344275 -4.43762,7.0597751 -6.19345,11.0996601 l -2.23255,5.152085 -0.0351,-0.0059 -0.32873,-0.59579 c -0.87455,-1.498433 -1.94012,-2.216677 -3.307,-1.793654 -1.180014,0.345733 -2.318614,0.969178 -3.35672,1.988086 -1.714684,1.664658 -3.282452,3.624344 -4.480728,6.132546 -0.383776,0.763768 -0.762196,1.537608 -1.108275,2.339228 -1.379076,1.707363 -3.061421,3.283485 -4.332412,3.641222 l 0.914003,-1.746303 c 1.259875,-2.310638 2.051411,-4.786483 2.440739,-7.424511 0.451141,-3.11804 -0.120232,-5.459811 -1.808814,-6.884618 -1.234521,-1.018954 -2.654145,-0.935588 -4.244756,0.347019 -1.202428,1.009818 -2.272574,2.363291 -3.058909,3.9704 -0.558956,1.13426 -1.169829,2.024871 -1.913196,2.909782 -0.565856,0.70438 -1.07764,1.447322 -1.537899,2.224007 -0.189158,0.01282 -0.344489,0.170414 -0.465021,0.476834 -1.044517,2.40894 -2.67177,5.140581 -4.104514,6.170169 l 0.536112,-1.929603 c 0.761131,-2.57576 1.001872,-5.085538 0.790977,-7.556488 -0.258648,-2.916512 -1.389818,-4.699451 -3.458425,-5.183704 -1.507075,-0.33425 -2.949263,0.373922 -4.289197,2.2028 -1.003599,1.417582 -1.791131,3.075116 -2.227913,4.826344 -0.312373,1.237756 -0.734809,2.286764 -1.294876,3.390015 -1.609885,3.328542 -2.275405,6.795331 -2.1412,10.225302 0.10512,3.627219 2.166026,6.250683 4.970795,5.701501 1.107065,-0.250976 2.092303,-1.103949 2.926425,-2.361785 1.10158,-1.641981 1.988527,-3.477853 2.769599,-5.364909 0.194632,-0.49471 0.430345,-0.773585 0.769311,-1.093066 0.575981,-0.552299 1.15183,-1.104569 1.656294,-1.72153 0.382077,-0.473897 0.742313,-0.970249 1.085956,-1.483157 -0.08004,0.345197 -0.155233,0.692728 -0.221671,1.044297 -0.749674,3.780876 0.436391,7.404331 3.005506,8.094998 1.021979,0.237389 2.077277,-0.199595 3.095132,-1.120872 1.339744,-1.196951 2.537639,-2.689578 3.655205,-4.282323 0.284123,-0.422117 0.553973,-0.603463 0.923149,-0.780537 0.629522,-0.310597 1.259212,-0.62123 1.841448,-1.03042 0.964008,-0.689972 1.863779,-1.530919 2.726072,-2.458842 -0.08943,0.333409 -0.170981,0.673049 -0.240811,1.021316 -0.548905,2.778274 0.152533,5.222306 1.832573,6.204638 0.538526,0.305837 1.099941,0.399005 1.68993,0.226134 0.765456,-0.143778 1.454389,-0.57095 2.125231,-1.163513 1.458404,-1.274054 2.799277,-2.784024 3.99336,-4.589134 0.20405,-0.236856 0.37872,-0.532696 0.58848,-0.822745 0.0416,0.277585 0.0246,0.436964 -0.0278,0.590717 -0.17809,1.323909 -0.42643,2.636281 -0.56371,3.912818 -0.0915,0.851028 -0.0837,1.772634 0.006,2.599567 0.25028,1.990433 1.94161,2.866463 3.03771,1.640616 0.60068,-0.604197 1.17759,-1.320662 1.69015,-2.101883 1.36877,-2.100972 2.70811,-4.260884 4.01241,-6.426685 0.61135,-1.035526 1.1934,-2.130149 1.74029,-3.230502 0.13392,-0.248493 0.23836,-0.555971 0.30778,-0.869284 0.0573,-0.531891 -0.1541,-0.891702 -0.49279,-0.731303 -0.25704,0.06565 -0.53706,0.343983 -0.7411,0.580844 -0.20976,0.290047 -0.39008,0.639181 -0.56476,0.935045 -1.6708,2.917096 -3.43527,5.710311 -5.34675,8.208541 l -0.81634,0.94742 0.0687,-0.638127 c 1.28022,-4.930803 2.76527,-9.773563 4.47876,-14.415983 0.0987,-0.254315 0.27343,-0.550183 0.43093,-0.68648 1.67963,-1.670477 3.20673,-3.582841 4.64565,-5.672182 2.03314,-2.965303 3.7789,-6.248938 5.27273,-9.8450281 0.43018,-1.011422 0.76088,-2.093458 0.92181,-3.2578 0.17238,-1.270724 -0.18651,-2.250457 -0.78453,-2.999256 -0.22426,-0.280802 -0.46147,-0.442114 -0.70506,-0.508196 -0.12687,-0.03441 -0.25547,-0.04298 -0.38492,-0.02931 z m 0.66847,2.795568 c -0.0736,1.016414 -0.39268,1.992042 -0.70046,2.861349 -0.29635,0.762927 -0.59842,1.579076 -0.95919,2.2771831 -1.728,3.448986 -3.6787,6.644434 -5.89947,9.362073 -0.0873,0.147939 -0.16909,0.242728 -0.2858,0.331652 l -0.035,-0.0058 c 0.78708,-3.334114 6.46687,-13.9769081 7.87992,-14.8264451 z M 39.413539,21.161888 c 0.116545,-0.01516 0.226964,-0.0052 0.331362,0.02981 0.125275,0.04201 0.24203,0.120146 0.349815,0.23436 0.792044,0.894961 1.109965,2.255469 1.188302,3.757057 0.144693,2.58994 -0.301085,5.227135 -1.093975,7.908306 -0.382572,1.219004 -0.835495,2.419382 -1.25377,3.606073 -0.161537,0.435211 -0.330934,0.595001 -0.642113,0.671338 -0.794541,0.22056 -1.427599,0.0058 -1.933583,-0.630411 -0.827814,-0.927296 -1.180289,-2.274304 -1.430776,-3.707981 l -0.0065,-0.229582 c -0.270278,-0.915034 0.0897,-1.707213 0.659052,-2.489074 0.06747,-0.0731 0.133883,-0.191984 0.200068,-0.310981 0.537563,-0.676458 0.561354,-1.057423 0.129574,-1.537235 -0.181459,-0.253487 -0.397324,-0.493312 -0.648987,-0.765552 l -1.55e-4,-4.28e-4 c 0.440719,-1.613505 1.056535,-3.202944 1.989834,-4.639311 0.499138,-0.800619 1.10812,-1.412328 1.794049,-1.7758 0.128696,-0.06528 0.251268,-0.105542 0.367815,-0.120687 z m 16.817779,-1.628785 c 0.127173,-0.0096 0.243287,0.0041 0.348257,0.04074 0.230938,0.08053 0.408162,0.272757 0.531626,0.576785 0.482007,1.275945 0.443313,2.819004 0.163314,4.3998 -0.474594,2.73086 -1.474335,5.245848 -2.786323,7.650766 -0.615716,1.083532 -1.288079,2.11626 -1.92744,3.150487 -0.241501,0.375699 -0.426259,0.464176 -0.714897,0.403387 -0.74285,-0.128746 -1.244123,-0.63312 -1.537058,-1.514699 -0.505638,-1.325239 -0.500196,-2.86964 -0.385786,-4.457621 l 0.0474,-0.239296 c -0.0231,-1.062962 0.474225,-1.717101 1.15115,-2.267008 0.07581,-0.04496 0.161126,-0.137975 0.246276,-0.230841 0.624869,-0.455613 0.733744,-0.83699 0.469031,-1.52428 -0.09919,-0.342197 -0.231405,-0.685697 -0.387376,-1.078633 0.757876,-1.463531 1.662318,-2.82416 2.807979,-3.884712 0.620209,-0.600625 1.292417,-0.957893 1.973874,-1.024882 z m 14.348939,4.064331 c 0.24482,-0.0286 0.47015,-0.01236 0.68379,0.05294 0.31394,0.09594 0.6022,0.297859 0.88904,0.619487 -0.37713,1.182638 -0.7894,2.359412 -1.20163,3.536231 -0.0522,0.153747 -0.10471,0.307417 -0.19177,0.455429 -2.02662,3.237064 -4.182118,6.344606 -6.719451,8.684937 -1.078867,1.066212 -1.965943,1.677085 -2.848044,1.909824 -0.259356,-0.909201 -0.162214,-1.813521 0.07535,-2.694474 0.196801,-0.833566 0.463726,-1.655577 0.795141,-2.412696 1.499522,-3.649279 3.32789,-6.702656 5.80727,-8.836043 0.822634,-0.675675 1.692574,-1.12692 2.604104,-1.300619 0.0358,-0.0059 0.0712,-0.01095 0.1062,-0.015 z m -22.504086,8.760131 c 0.434047,2.528906 1.51702,3.975661 3.205965,4.724693 l -1.008524,1.211413 c -1.960121,2.135463 -4.288967,3.434162 -3.72845,-0.741096 0.213751,-1.58367 0.801419,-3.537173 1.531009,-5.19501 z m -14.451398,3.741268 c 1.033216,2.007234 2.483439,2.781877 4.395707,2.677664 l -0.757254,1.506124 c -1.522567,2.736823 -3.618705,4.910349 -4.009897,1.024482 -0.14712,-1.474432 0.0048,-3.438287 0.371444,-5.20827 z m 8.017088,6.150898 c -0.148622,0.01319 -0.295026,0.04164 -0.439253,0.08524 l 1.03e-4,-1.27e-4 c -0.346131,0.104595 -0.679302,0.297071 -0.999192,0.579299 -0.483505,0.45868 -0.927403,1.029656 -1.31979,1.625047 -0.885579,1.393009 -1.410155,2.956509 -1.896351,4.506894 -1.157315,3.918996 -1.761544,7.943019 -2.096051,12.000754 -0.217839,2.801286 -0.269041,5.587788 -0.06346,8.370424 0.01005,0.119282 0.02081,0.238142 0.03131,0.357252 l -0.004,0.0108 c -0.931675,3.33857 -2.249514,6.55711 -3.439044,9.77391 -0.274881,0.80701 -0.652948,1.56556 -0.992603,2.31078 l -0.353974,0.58206 c -0.09462,-0.51309 -0.174742,-0.86325 -0.203446,-1.18908 -0.235453,-3.23393 -0.29105,-6.44522 -0.05152,-9.67343 l 0.478623,-5.11389 c 0.08412,-0.616051 -0.03323,-0.827671 -0.58733,-1.058091 -0.515712,-0.243529 -1.055632,-0.31113 -1.632588,-0.240085 -0.39706,0.09355 -0.677715,0.273508 -0.802564,0.651726 l -0.361219,1.171896 c -0.951028,4.016434 -1.170588,8.035074 -0.721848,12.119174 0.154361,1.41567 0.500805,2.76572 1.192575,3.99798 0.273376,0.41013 0.585104,0.80727 1.074447,0.97589 1.198152,0.47211 2.72052,-0.0894 3.261785,-1.23901 0.403232,-0.80887 0.754785,-1.64226 1.05488,-2.49983 l 2.385136,-7.71744 c 0.118591,0.99564 0.251147,1.99122 0.396497,2.9925 0.178398,1.23966 0.408343,2.50364 0.715082,3.74145 0.252824,0.96254 0.69173,1.23216 1.718484,1.21738 0.295063,-0.0169 0.615369,-0.0841 0.897265,-0.13843 0.410225,-0.0561 0.626304,-0.29749 0.648005,-0.72443 0.02056,-0.5524 0.06608,-1.15543 0.163405,-1.73402 0.47219,-3.05589 1.124533,-6.08921 2.2528,-8.991444 0.839024,-2.258124 1.935682,-4.394408 3.406734,-6.322845 0.596341,-0.748908 1.219125,-1.423045 2.022917,-1.949079 1.238046,-0.758147 1.266764,-0.43241 1.461848,1.221078 0.140006,1.252762 -0.06666,2.498094 -0.158136,3.704001 -0.05656,0.816405 -0.34582,1.46058 -0.956509,2.046566 -1.919676,1.997633 -3.542045,4.229313 -4.673803,6.755163 -0.36485,0.79576 -0.639625,1.60271 -0.66984,2.49404 -0.101162,1.54483 0.50796,2.17602 2.061271,2.19128 1.643277,0.0267 2.843119,-0.7184 3.794617,-1.92413 1.154283,-1.48471 1.999003,-3.1155 2.496037,-4.87935 0.609877,-2.05406 1.052845,-4.093259 1.122962,-6.214833 0.0094,-0.338937 0.12275,-0.62924 0.390291,-0.846402 0.608097,-0.572041 1.216389,-1.143415 1.82948,-1.701236 -0.07113,0.632916 -0.112924,1.271072 -0.118482,1.914614 -0.01117,1.556087 0.182748,3.084015 0.902075,4.516657 1.582478,3.15177 4.71526,3.25727 6.862569,2.27273 0.804961,-0.40058 1.480422,-0.92475 2.116304,-1.56129 1.348556,-1.299293 2.348112,-2.857056 3.296108,-4.439177 1.003499,-1.56047 1.695699,-3.267823 2.184189,-5.038238 0.34521,0.923743 0.7745,1.824677 1.25061,2.691318 0.24817,0.460691 0.30316,0.861366 0.0127,1.380009 -0.47883,0.960524 -0.89289,1.982831 -1.29379,3.04261 -0.92898,2.246868 -1.574826,4.565038 -1.886123,6.978688 -0.167081,1.35756 -0.01388,2.64783 0.587953,3.86884 0.43159,0.85958 1.06594,1.44021 2.03028,1.61454 0.35983,0.045 0.73284,0.12728 1.11787,0.12174 2.41334,0.0154 4.35547,-0.94096 5.91765,-2.73268 1.65097,-1.90595 2.18303,-4.05923 1.46756,-6.45808 -0.39902,-1.49999 -1.04176,-2.958829 -1.88825,-4.264159 -0.78173,-1.243517 -1.60181,-2.47407 -2.42191,-3.704484 -0.2602,-0.372683 -0.28881,-0.698517 -0.0873,-1.102936 l 3.51627,-6.989338 c 0.0371,-0.138548 0.1261,-0.25282 0.20171,-0.404477 0.12484,-0.378235 -0.006,-0.627259 -0.40409,-0.659162 -0.4498,-0.05627 -0.79539,0.06174 -1.07494,0.366912 l -0.56989,0.823652 -2.60043,4.705336 -0.40449,0.683399 c -1.00821,-2.131147 -1.23331,-4.235944 -1.13912,-6.53355 0.81311,0.477653 1.57248,0.679903 2.36776,0.618251 0.29506,-0.01693 0.60212,-0.121695 0.90921,-0.226503 0.29389,-0.142275 0.27833,-0.430378 0.0325,-0.640149 -0.0648,-0.0618 -0.18102,-0.148029 -0.32257,-0.183635 -0.47615,-0.131164 -0.68478,-0.479501 -0.90658,-0.865288 -0.3393,-0.597412 -0.57661,-1.271693 -0.6472,-1.960805 -0.005,-0.501837 -0.21329,-0.85014 -0.67742,-1.069323 -0.63203,-0.329693 -1.32647,-0.470223 -2.04379,-0.309316 -0.26871,0.09173 -0.54929,0.271441 -0.77845,0.475516 -0.64905,0.599077 -0.97551,1.381766 -1.13407,2.274942 -0.24004,1.757888 -0.22683,3.498168 0.0386,5.221319 -0.0702,0.596348 -0.12292,1.200868 -0.24698,1.771786 -0.405916,1.900554 -1.224378,3.606398 -2.146006,5.263423 -0.904954,2.070866 -6.077628,8.996409 -7.396078,5.251079 -0.44594,-1.022497 -0.57165,-2.112405 -0.595316,-3.279014 l 1.058172,-0.780529 c 2.598616,-2.145442 4.306291,-4.867902 5.072375,-8.066062 0.260555,-0.969923 0.315864,-1.911641 0.229763,-2.889127 -0.08485,-0.85204 -0.348561,-1.601174 -1.123296,-2.091924 -1.265243,-0.784842 -2.589366,-1.004296 -3.930561,-0.294847 -0.54943,0.271406 -1.084431,0.705786 -1.491171,1.138266 -0.915443,0.941712 -1.663044,1.994038 -2.13955,3.20548 -0.615429,1.486563 -1.108137,3.011087 -1.425545,4.570786 -0.165302,0.05748 -0.325229,0.150666 -0.482335,0.275604 -0.446274,0.320121 -0.866411,0.715106 -1.299519,1.072681 -0.203943,0.153512 -0.445963,0.320109 -0.70032,0.574732 -0.06706,-0.312743 -0.08161,-0.475608 -0.147579,-0.662854 -0.172242,-0.612434 -0.319988,-1.275288 -0.569311,-1.861446 -0.486673,-1.260307 -1.4807,-1.886063 -2.843257,-2.092298 -0.488164,-0.0432 -0.93684,0.02626 -1.396309,0.308929 -1.353216,0.797445 -2.382619,1.903843 -3.256177,3.208839 -2.317074,3.433798 -3.745605,7.193494 -4.709815,11.172464 l -0.186091,0.69289 c 0,0 -0.05146,-0.0245 -0.08986,-0.0114 0.02401,-0.17602 -0.0035,-0.37638 -0.03099,-0.57674 0.0054,-2.18338 -0.04086,-4.390847 -0.01029,-6.624786 -0.0024,-0.250918 0.08537,-0.490796 0.22455,-0.706114 1.99565,-3.491907 3.630138,-7.154335 4.91695,-10.949729 0.62423,-1.891154 1.17173,-3.755866 1.51289,-5.718226 0.181435,-1.194647 0.362909,-2.389576 0.274476,-3.617975 -0.09309,-1.730253 -0.926409,-2.998122 -2.525118,-3.753061 -0.483475,-0.228306 -0.94894,-0.324509 -1.394794,-0.284797 z m 1.377958,1.360001 c 0.350929,-0.02022 0.673942,0.258844 0.94601,0.831334 0.209806,0.473794 0.317505,1.024358 0.373766,1.550541 0.141157,1.378224 -0.07744,2.711373 -0.347675,4.020239 -0.505553,2.228231 -1.294185,4.385233 -2.16074,6.442985 l -2.915263,6.742411 c -0.0756,0.15168 -0.164258,0.265899 -0.201481,0.404459 -0.05161,-0.02436 -0.103054,-0.04855 -0.141447,-0.03548 l 0.17853,-4.256264 c 0.186802,-3.378022 0.540369,-6.770984 1.356875,-10.070243 0.309774,-1.196502 0.722682,-2.344507 1.17399,-3.505397 0.200453,-0.529892 0.503974,-1.010793 0.820754,-1.454527 0.261425,-0.356666 0.518904,-0.570458 0.764696,-0.643035 0.0512,-0.01515 0.101854,-0.02413 0.151985,-0.02701 z m 19.034666,10.558217 c 0.36216,0.295925 0.430303,0.73421 0.49856,1.172392 0.136515,0.876358 0.02966,1.793903 -0.18049,2.662721 -0.56915,2.291881 -1.745181,4.20343 -3.320546,5.957706 l -0.762928,0.763942 c -0.03842,0.01325 -0.05178,-0.02442 -0.103339,-0.04879 0.137206,-1.808843 0.415978,-3.582022 0.926196,-5.308422 0.446642,-1.662727 1.321791,-4.184942 2.942547,-5.199548 z m -33.244091,3.367862 c -0.05087,0.0046 -0.101936,0.0099 -0.153209,0.01693 -0.102532,0.01423 -0.191467,0.03652 -0.267206,0.06942 l 1.4e-4,2.07e-4 c -0.227125,0.09912 -0.335938,0.293638 -0.342334,0.641917 -0.03136,0.765859 -0.06289,1.531471 -0.04271,2.321687 0.0023,0.250913 0.04322,0.488827 0.08273,0.601186 0.30441,0.986879 1.568327,1.646438 2.426014,1.395693 0.28191,-0.0542 0.395933,-0.219039 0.328854,-0.531771 -0.04189,-0.363277 -0.08367,-0.726682 -0.03561,-1.078711 0.07094,-0.6535 0.218441,-1.333126 0.37934,-1.975371 0.06126,-0.31458 0.0074,-0.589902 -0.276854,-0.786571 -0.618351,-0.49693 -1.335833,-0.738783 -2.099156,-0.674621 z m -10.254122,4.557804 c -0.07372,0.0075 -0.140073,0.02206 -0.199244,0.04297 -0.354965,0.125318 -0.448221,0.479363 -0.280123,0.956877 l 0.364569,0.546832 c 0.352473,0.634856 0.833268,1.267869 1.108969,1.928926 1.193958,2.780954 1.632331,5.735794 1.39046,8.713094 -0.311642,3.75626 -1.137881,7.39443 -2.658527,10.89204 l -0.06026,0.44008 c -0.103137,-0.0487 -0.192928,-0.0598 -0.282897,-0.0711 l -0.528302,-2.96612 -0.956744,-6.2603 c -0.248981,-1.92878 -0.536324,-3.84441 -1.003607,-5.78259 -0.186939,-0.77526 -0.716901,-1.18171 -1.462927,-1.346637 -0.359829,-0.04498 -0.66819,-0.06548 -1.001641,-0.0356 -1.193489,0.02972 -1.536471,0.398387 -1.384437,1.563137 0.128,1.34077 0.21761,2.69467 0.383986,4.02233 0.341283,2.19095 0.682411,4.38193 1.06207,6.55977 0.406039,2.25275 1.157714,4.38758 2.037565,6.52057 0.315283,0.77341 0.871692,1.25477 1.7701,1.24183 1.296636,0.019 2.383262,-0.43596 3.052868,-1.58745 0.227988,-0.32953 0.404608,-0.68332 0.606223,-1.08776 1.371764,-2.94337 2.240856,-6.09278 2.82704,-9.31344 0.558653,-3.42103 0.514062,-6.84602 -0.45423,-10.207418 -0.424251,-1.449425 -1.078856,-2.820345 -2.154492,-3.9216 -0.53123,-0.531914 -1.163262,-0.861428 -1.933337,-0.850353 -0.08831,-0.0066 -0.169374,-0.0058 -0.243085,0.0017 z m 53.750305,5.062941 0.57549,1.146173 c 0.83797,1.769715 1.59905,3.565535 1.77125,5.520495 0.12045,1.93062 -0.45419,3.59535 -1.91789,4.93394 -0.5219,0.47179 -0.74029,0.46234 -1.21994,-0.0452 -0.49285,-0.545 -0.80683,-1.19299 -0.9158,-1.869 -0.12213,-0.71346 -0.19289,-1.40255 -0.18671,-2.11787 0.0461,-1.94555 0.98749,-5.623118 1.8936,-7.568523 z m -24.51875,3.165668 c -0.567987,2.41734 -1.29054,4.76168 -3.030313,6.78182 -0.05742,-0.65166 0.0012,-1.21724 0.215013,-1.70968 0.338482,-0.87067 0.677149,-1.74133 1.131959,-2.52583 0.453641,-0.90997 1.061801,-1.74685 1.683341,-2.54631 z m 36.00387,0.99056 c -0.0319,0.003 -0.0628,0.006 -0.093,0.0116 -0.40286,0.0663 -0.66565,0.34173 -0.876,0.85611 -0.48436,1.23144 -0.9227,2.49098 -1.36608,3.7163 -2.0686,5.9991 -3.28645,12.08197 -4.24291,18.23116 -0.15189,0.93594 -0.17047,1.92228 -0.19998,2.55894 0.1505,0.99616 0.48474,1.54326 1.23846,1.81712 0.89222,0.35856 1.88136,0.52713 2.88505,0.23678 l 0.23033,-0.1397 c 0.0612,-0.14965 0.19379,-0.38028 0.14243,-0.44286 -0.30815,-0.3755 -0.24229,-0.7717 -0.17645,-1.16791 l 0.95724,-5.86828 c 0.73516,-4.00865 1.51635,-7.98895 2.72303,-11.9275 0.52425,-1.7994 0.96134,-3.621 1.788,-5.36017 0.22456,-0.45503 0.12651,-0.82678 -0.17646,-1.16792 -0.51357,-0.62584 -1.20085,-1.01499 -2.03132,-1.24227 -0.31625,-0.0911 -0.57948,-0.12966 -0.80229,-0.11122 z m -22.730398,6.17553 c -0.04533,0.004 -0.09045,0.009 -0.135242,0.0151 -0.776111,0.10225 -1.459827,0.44881 -2.079339,0.85523 -0.757254,0.53455 -1.376035,1.15384 -1.897282,1.8639 -1.262398,1.6286 -2.21207,3.3862 -2.992576,5.15362 -1.122248,2.55604 -2.024,5.18441 -2.80287,7.79458 -0.540272,1.83609 -1.031344,3.67325 -1.380286,5.51942 l -5.865656,10.876926 c -0.59227,1.07192 -1.322995,2.05924 -2.140915,3.02435 -0.06639,0.1153 -0.184021,0.16794 -0.403941,0.37641 0.07049,-0.64279 0.0746,-1.17019 0.165843,-1.67556 0.470724,-2.98566 1.33092,-5.88914 2.186007,-8.82681 0.661673,-2.27654 1.364384,-4.559166 1.769811,-6.867716 0.127023,-0.54585 0.125871,-1.10759 0.129966,-1.63508 0.03006,-0.35573 -0.175335,-0.60613 -0.539483,-0.79764 -0.543635,-0.27009 -1.184406,-0.35002 -1.845238,-0.28649 -0.327833,0.049 -0.52218,0.14807 -0.695931,0.38476 -3.041937,3.43976 -6.40179,6.71632 -8.976311,10.753666 l -0.414006,0.58883 c 0.0047,-0.24657 0.03516,-0.32152 0.01958,-0.42457 0.223473,-1.01686 0.482968,-2.07426 0.66546,-3.085 l 1.004553,-4.997226 c 0.06065,-0.43056 -0.108906,-0.72141 -0.514044,-0.9068 -0.589806,-0.29833 -1.19453,-0.41872 -1.896345,-0.34907 -0.41497,0.0268 -0.768247,0.18499 -0.931617,0.49038 -0.301323,0.50161 -0.602762,1.00311 -0.816943,1.52684 -0.691419,1.7188 -1.215372,3.450626 -1.626407,5.202756 -1.095416,1.52023 -2.677079,3.06263 -4.175625,3.60169 l 0.504566,-1.37486 c 0.729146,-1.82998 0.827925,-3.67139 0.378538,-5.536196 -0.542264,-2.20218 -2.061661,-3.6612 -4.624687,-4.26207 -1.865847,-0.42395 -3.571256,-0.0642 -5.065034,1.14234 -1.115146,0.93923 -1.94823,2.08245 -2.345448,3.336 -0.285215,0.88558 -0.719236,1.617766 -1.317241,2.374426 -1.706869,2.29207 -2.25016,4.7966 -1.819911,7.36675 0.410034,2.71367 3.129717,3.99264 6.511199,3.90932 1.332053,-0.0584 2.468515,0.33523 3.38915,-0.50471 1.217323,-1.09499 2.157839,-2.35945 2.964834,-3.67418 0.199157,-0.34586 0.465151,-0.52604 0.854168,-0.72462 0.660292,-0.34444 1.320612,-0.68899 1.888565,-1.0899 0.886911,-0.63699 1.655281,-1.35356 2.35312,-2.11705 -0.0669,0.3744 -0.129581,0.74993 -0.188959,1.12658 -0.288771,1.69399 -0.362312,3.42625 -0.107989,5.10941 0.129757,0.85877 0.417057,1.0967 1.431659,1.15597 0.297229,0.0259 0.589283,0.0174 0.881323,0.009 0.537908,-0.0452 0.921658,-0.27805 1.105235,-0.72696 l 0.39327,-0.72619 c 1.34272,-2.4836 2.639318,-4.99543 4.069184,-7.4569 1.200118,-2.04081 2.579657,-4.002916 4.282426,-5.767496 l 0.618781,-0.61938 c 0.04619,0.0282 0.05126,0.0628 0.09227,0.0567 -0.0254,0.10917 -0.05097,0.21822 -0.117364,0.3335 l -1.441933,4.043946 c -0.927199,2.73768 -1.690779,5.45099 -1.895407,8.25642 -0.07977,1.13592 -0.118328,2.26566 0.170698,3.34651 0.247494,0.80606 0.648466,1.51889 1.581665,1.87133 1.46126,0.51949 3.033284,0.10925 3.9072,-1.03985 1.114063,-1.50107 2.130668,-3.09287 2.890946,-4.71676 1.005904,-2.12525 2.013,-4.25027 3.078423,-6.35595 -0.04907,0.80458 -0.06159,1.61189 -0.02523,2.42269 0.06337,0.97405 0.126943,1.94801 0.518143,2.8731 0.324262,0.75947 0.801914,1.4259 1.87308,1.58211 1.199284,0.1722 2.33638,-0.068 3.251835,-0.94231 0.368248,-0.33598 0.690373,-0.7 0.961099,-1.12679 0.541458,-0.85358 1.118671,-1.74759 1.608765,-2.66376 l 1.784232,-3.73661 c -2.65e-4,0.39369 0.0085,0.78804 0.02644,1.18316 0.08415,1.11143 0.403699,2.11744 0.887226,3.09901 0.617399,1.31285 2.114121,1.51086 3.568557,1.15323 0.891131,-0.20329 1.520118,-0.75388 2.005563,-1.42347 0.654013,-0.94065 1.267011,-1.87508 1.874855,-2.84395 l 0.413793,-0.58869 c -0.005,0.24657 0.0111,0.3496 0.0267,0.45264 -0.13168,0.79242 -0.268565,1.55045 -0.359262,2.33673 -0.0197,0.42445 -0.13701,0.75811 -0.453911,1.15668 -0.413876,0.58866 -0.822557,1.21166 -1.190276,1.82855 -1.701138,2.60735 -3.187067,5.25283 -4.406307,7.999 -0.566322,1.24367 -0.958369,2.53159 -1.268434,3.80726 -0.157094,0.90158 0.0085,1.71983 0.373755,2.47318 0.246956,0.52513 0.713924,0.84194 1.359729,0.95628 0.73296,0.13645 1.486142,0.12937 2.284935,-0.13038 1.326307,-0.37363 2.328789,-1.226 3.059555,-2.21323 0.868746,-1.18344 1.563306,-2.41102 2.032086,-3.74551 0.37701,-1.11004 0.70254,-2.28264 0.99239,-3.41479 0.94525,-4.00488 1.51649,-7.9892 1.95962,-11.98938 0.0249,-0.39009 0.17792,-0.7641 0.41804,-1.116076 l 2.31017,-3.01445 c 0.38847,-0.47949 0.77174,-0.99311 1.07306,-1.49472 0.31172,-0.43291 0.10616,-0.68335 -0.43693,-0.67252 -0.29722,-0.0259 -0.52754,0.11398 -0.70129,0.35067 -0.48545,0.6696 -1.0169,1.31078 -1.46656,1.93991 -0.19917,0.34586 -0.48554,0.6697 -0.73087,0.98732 -0.0411,0.006 -0.087,-0.0222 -0.12799,-0.0161 -0.0154,-0.10306 -0.0314,-0.20611 -0.0111,-0.34964 0.11557,-1.17637 0.18501,-2.38084 0.21343,-3.57935 0.0855,-0.82063 0.13001,-1.63524 0.17454,-2.44978 0.0249,-0.39009 0.009,-0.77403 -0.32485,-1.04035 -0.55921,-0.37316 -1.22056,-0.59065 -1.89177,-0.5958 -0.42017,-0.008 -0.65049,0.13226 -0.80867,0.47196 -0.097,0.1901 -0.14779,0.40839 -0.1986,0.62672 -0.32045,1.20697 -0.59467,2.44238 -0.86896,3.67759 -0.16282,0.58631 -0.2845,1.16642 -0.53448,1.73062 -1.239451,2.88968 -3.099382,5.555766 -5.051577,8.165476 l -0.47062,0.49183 c -0.298315,-0.58772 -0.427573,-1.16555 -0.428661,-1.72739 -0.126205,-1.66716 -0.0474,-3.365056 0.287556,-5.030806 0.385204,-2.16503 0.775725,-4.29567 1.248073,-6.43858 0.03007,-0.35575 -0.165112,-0.53738 -0.436926,-0.67241 -0.589804,-0.29833 -1.266136,-0.33767 -1.998549,-0.1932 -0.322626,0.0833 -0.547874,0.25725 -0.716441,0.52829 l -0.428344,1.04752 c -0.491344,1.64088 -0.847456,3.27122 -1.057562,4.90376 -0.09796,0.0915 -0.185403,0.20687 -0.2612,0.35111 -0.633249,1.07805 -1.220381,2.18444 -1.807455,3.290716 -1.015988,1.87282 -1.985814,3.77375 -3.314597,5.51763 -0.173751,0.2367 -0.393648,0.44513 -0.608367,0.68794 l -0.133261,-0.0503 -0.03727,-0.80246 c 0.01584,-2.39087 0.287965,-4.74966 0.642015,-7.120786 0.04043,-0.28704 0.183422,-0.44878 0.362357,-0.65112 0.981828,-0.98958 1.968978,-1.94485 2.781703,-2.94432 2.898244,-3.55882 5.430683,-8.15201 6.749381,-12.45852 0.392024,-1.28791 0.573896,-2.57951 0.335683,-3.8787 -0.227852,-1.2305 -1.207791,-1.89211 -2.719333,-1.91233 -0.141935,-0.003 -0.280938,0.002 -0.417113,0.0142 z m 0.99818,1.0581 c 0.75317,-0.007 0.64914,1.79991 0.385227,3.10381 -0.233305,1.22909 -0.594619,2.44231 -1.176521,3.58293 -1.735287,3.49059 -3.629902,6.75904 -6.333632,10.21856 0.867384,-4.52014 2.226405,-9.11379 4.334047,-13.46784 0.35215,-0.71995 0.791656,-1.41773 1.236116,-2.08122 0.337123,-0.54208 0.812518,-0.99954 1.554763,-1.35624 z M 20.50859,95.566384 c 0.382651,-0.0339 0.727685,0.0553 1.034926,0.26882 1.036456,0.75852 1.530388,1.80865 1.742643,2.93609 0.377805,1.945736 0.03822,3.858076 -0.721525,5.762886 -0.372351,0.86347 -0.831898,1.705 -1.25042,2.54024 -0.16337,0.30537 -0.357798,0.40453 -0.731791,0.42524 -0.95287,0.072 -1.74235,-0.16124 -2.409466,-0.69391 -1.082628,-0.78675 -1.617616,-1.83098 -2.034755,-2.92784 l -0.02602,-0.17181 c -0.40103,-0.71289 -0.02287,-1.26105 0.611473,-1.77725 0.07676,-0.0466 0.148333,-0.12745 0.219914,-0.20839 0.603741,-0.44139 0.603021,-0.72227 0.03863,-1.12977 -0.241223,-0.20986 -0.523259,-0.41359 -0.851625,-0.645556 0.412793,-1.1505 1.040849,-2.26292 2.068846,-3.22426 0.547193,-0.53833 1.243132,-0.92337 2.052308,-1.11443 0.06082,-0.0134 0.120707,-0.0239 0.179784,-0.0316 0.02581,-0.003 0.05156,-0.006 0.07704,-0.009 z m -5.724174,10.445596 c 1.417271,1.61493 3.247875,2.36022 5.574324,2.50466 l -0.807429,1.03367 c -1.646217,1.86153 -4.036262,3.23709 -4.815643,0.29754 -0.294218,-1.11519 -0.261316,-2.56021 0.04875,-3.83587 z m 63.861441,-5.1782 c -0.12359,0.014 -0.23635,0.0297 -0.33956,0.0481 l -1e-5,-1.1e-4 c -0.7226,0.12756 -0.97369,0.37624 -1.13386,1.01483 l -0.70097,3.12546 c -0.0607,0.43056 -0.12137,0.86121 -0.10005,1.27954 -0.0227,1.51377 1.7422,2.65527 3.51927,2.21434 0.48654,-0.10778 0.58341,-0.2978 0.55693,-0.75048 -0.0265,-0.45268 -0.0992,-0.9337 -0.0437,-1.3986 0.22292,-1.2978 0.48661,-2.60168 1.04774,-3.87971 0.27018,-0.70772 -0.0685,-1.00846 -0.56596,-1.25031 -0.72311,-0.34867 -1.53805,-0.47265 -2.23987,-0.40301 z m -16.642581,7.6256 c -0.899252,0.24775 -1.808267,0.27835 -2.521581,0.74391 -10.327135,6.66944 -19.709766,7.50464 -28.265823,7.72334 -4.278032,0.10936 -8.08867,-0.32732 -11.611723,-0.38388 -3.459637,-0.0556 -4.214583,0.13006 -6.909536,2.02377 -4.2473223,4.86392 3.807631,0.91696 7.24852,0.38144 3.165193,-0.0466 6.99412,1.12711 11.329663,1.01629 8.671089,-0.22164 18.691494,-0.80023 29.554304,-7.81562 2.996804,-2.11385 2.592523,-3.81631 1.176176,-3.68925 z m 5.035283,0.14857 c 0.04107,-0.006 0.08703,0.0222 0.128008,0.0161 -0.46088,2.77344 -0.665543,5.57875 -1.505598,8.33856 -0.341212,1.06958 -0.810588,2.12343 -1.541354,3.11066 l -0.649157,0.69405 c -0.457045,-0.5289 -0.591567,-1.1411 -0.638831,-1.73118 -0.09457,-1.18014 0.318376,-2.33061 0.695373,-3.44065 0.463605,-1.36885 1.065666,-2.65308 1.795896,-3.92122 l 1.245723,-2.2936 c 0.16855,-0.27103 0.34237,-0.50777 0.46994,-0.77268 z"
       id="path11038"
       inkscape:connector-curvature="0"
       sodipodi:nodetypes="ccccccccccccccccccccccccccccccccccccccccccccccccccccccccccccccccccccccccccccccccccccccccccccccccccccccccccccccccccccccccccccccccccccccccccccccccccccccccccccccccccccccccccccccccccccccccccccccccccccccccccccccccccccccccccccccccccccccccccccccccccccccccccccccccccccccccccccccccccccccccccccccccccccccccccccccccccsccccccccccccccccccsccccccccccccccccccccccccccccccccccccccccccccccccccccccccccccccccccccccccccccccccccccccccccccccccccccccccccccccccccccccccccscccccccccccccccccccccccccccccccccccccccccccccccccccccccccccccccccccccccccccccccccccccccccccccccccccccccccccccccccccccccccccccccccscccsccccccccccccc" />
  </g>
</svg>
